static_grf.mot
version=1
nRows=30
nColumns 19
inDegrees=yes
endheader
time	1_ground_force_vx	1_ground_force_vy	1_ground_force_vz	1_ground_force_px	1_ground_force_py	1_ground_force_pz	1_ground_torque_x	1_ground_torque_y	1_ground_torque_z	2_ground_force_vx	2_ground_force_vy	2_ground_force_vz	2_ground_force_px	2_ground_force_py	2_ground_force_pz	2_ground_torque_x	2_ground_torque_y	2_ground_torque_z
            0.486000	            1.106241	          331.552285	           -8.715637	           -0.242110	            0.006340	           -0.432997	            0.002573	            0.771007	           -0.020268	           -4.659582	          292.745335	           11.558153	           -0.237873	            0.005506	           -0.664490	            0.020414	           -1.282571	           -0.050638
            0.486500	            1.244388	          331.911663	           -8.439296	           -0.241797	            0.006340	           -0.432993	            0.003066	            0.817759	           -0.020793	           -4.709775	          293.666036	           11.514530	           -0.237987	            0.005509	           -0.665404	            0.020359	           -1.269459	           -0.049775
            0.487000	            1.105654	          332.274134	           -8.895968	           -0.241974	            0.006339	           -0.432690	            0.002657	            0.798560	           -0.021380	           -4.614061	          293.113785	           11.559448	           -0.238185	            0.005507	           -0.664895	            0.020537	           -1.304666	           -0.051452
            0.487500	            1.014313	          331.012029	           -8.855296	           -0.242192	            0.006343	           -0.433759	            0.002406	            0.785273	           -0.021008	           -4.707179	          292.929976	           11.371118	           -0.237744	            0.005509	           -0.665045	            0.020629	           -1.283732	           -0.049833
            0.488000	            1.060414	          332.092846	           -8.667348	           -0.241935	            0.006341	           -0.433154	            0.002371	            0.742377	           -0.019375	           -4.706452	          292.745333	           11.511245	           -0.238007	            0.005509	           -0.665261	            0.020100	           -1.250241	           -0.049162
            0.488500	            1.243737	          331.732546	           -8.715205	           -0.242367	            0.006341	           -0.433294	            0.003098	            0.826210	           -0.021706	           -4.566485	          292.929312	           11.699555	           -0.237740	            0.005508	           -0.664919	            0.019960	           -1.280389	           -0.051139
            0.489000	            1.381054	          332.273597	           -8.759083	           -0.242054	            0.006339	           -0.432671	            0.003252	            0.782342	           -0.020623	           -4.335579	          293.851089	           11.655813	           -0.237910	            0.005510	           -0.665449	            0.019662	           -1.332650	           -0.052861
            0.489500	            1.243429	          331.552901	           -8.853546	           -0.242144	            0.006340	           -0.433069	            0.003059	            0.815608	           -0.021779	           -4.522938	          293.850078	           11.749748	           -0.238040	            0.005509	           -0.665320	            0.020050	           -1.302608	           -0.052085
            0.490000	            1.060821	          331.731725	           -8.531326	           -0.241886	            0.006339	           -0.432821	            0.002427	            0.758842	           -0.019516	           -4.661576	          293.297757	           11.560125	           -0.237995	            0.005508	           -0.664938	            0.019980	           -1.257109	           -0.049548
            0.490500	            1.152573	          331.371211	           -8.533100	           -0.242107	            0.006341	           -0.433182	            0.002802	            0.805516	           -0.020743	           -4.663508	          293.849738	           11.702880	           -0.237792	            0.005510	           -0.665512	            0.019662	           -1.238925	           -0.049342
            0.491000	            1.152474	          331.912038	           -8.530781	           -0.242322	            0.006341	           -0.433175	            0.002708	            0.779913	           -0.020045	           -4.428032	          293.483078	           11.466826	           -0.238113	            0.005509	           -0.665557	            0.020033	           -1.327757	           -0.051877
            0.491500	            1.427223	          331.732385	           -8.669804	           -0.241719	            0.006338	           -0.432609	            0.003542	            0.823202	           -0.021514	           -4.706452	          292.745333	           11.511245	           -0.238067	            0.005507	           -0.664939	            0.020699	           -1.287493	           -0.050626
            0.492000	            1.152312	          331.551900	           -8.624039	           -0.241930	            0.006341	           -0.433211	            0.002861	            0.823054	           -0.021409	           -4.659602	          292.745502	           11.511225	           -0.237937	            0.005506	           -0.664362	            0.020564	           -1.291963	           -0.050802
            0.492500	            1.014474	          331.372167	           -8.762038	           -0.241960	            0.006342	           -0.433554	            0.002252	            0.735672	           -0.019452	           -4.616096	          293.666542	           11.467562	           -0.237787	            0.005510	           -0.665339	            0.021053	           -1.339342	           -0.052301
            0.493000	            1.426768	          331.733172	           -8.853228	           -0.242171	            0.006340	           -0.433084	            0.003570	            0.830071	           -0.022153	           -4.613376	          292.929477	           11.605719	           -0.238003	            0.005508	           -0.665176	            0.019644	           -1.247306	           -0.049418
            0.493500	            1.060462	          332.453180	           -8.619946	           -0.242207	            0.006339	           -0.432841	            0.002433	            0.762854	           -0.019780	           -4.519614	          292.929313	           11.746463	           -0.238188	            0.005509	           -0.665432	            0.019982	           -1.295121	           -0.051934
            0.494000	            1.335603	          331.371836	           -8.671123	           -0.242196	            0.006341	           -0.433312	            0.003276	            0.812716	           -0.021267	           -4.521067	          293.298599	           11.466209	           -0.237991	            0.005509	           -0.665451	            0.020053	           -1.300921	           -0.050858
            0.494500	            1.152132	          331.912628	           -8.668348	           -0.242263	            0.006339	           -0.432740	            0.002708	            0.780010	           -0.020371	           -4.616034	          293.666040	           11.608347	           -0.237658	            0.005510	           -0.665403	            0.020898	           -1.329533	           -0.052555
            0.495000	            1.335342	          331.552526	           -8.762061	           -0.242014	            0.006340	           -0.432943	            0.003490	            0.866622	           -0.022903	           -4.614123	          293.114287	           11.418663	           -0.237995	            0.005508	           -0.665023	            0.020501	           -1.302313	           -0.050733
            0.495500	            1.105801	          332.093641	           -8.850886	           -0.241815	            0.006340	           -0.433008	            0.002469	            0.741441	           -0.019761	           -4.662843	          293.665536	           11.702223	           -0.238045	            0.005510	           -0.665660	            0.020623	           -1.298856	           -0.051758
            0.496000	            1.426930	          332.093310	           -8.759970	           -0.241988	            0.006339	           -0.432653	            0.003751	            0.872986	           -0.023028	           -4.563265	          292.009384	           11.461629	           -0.238086	            0.005507	           -0.664838	            0.019598	           -1.254071	           -0.049223
            0.496500	            1.380745	          332.093891	           -8.897424	           -0.242051	            0.006338	           -0.432614	            0.003526	            0.848125	           -0.022723	           -4.472847	          292.930152	           11.558731	           -0.238189	            0.005506	           -0.664791	            0.019990	           -1.309159	           -0.051658
            0.497000	            1.290428	          330.830078	           -8.444048	           -0.241990	            0.006344	           -0.433858	            0.003234	            0.828987	           -0.021159	           -4.754611	          293.113278	           11.559507	           -0.237996	            0.005508	           -0.664958	            0.020750	           -1.279186	           -0.050447
            0.497500	            1.518616	          332.093327	           -8.760198	           -0.242091	            0.006339	           -0.432709	            0.003903	            0.853436	           -0.022513	           -4.567129	          293.113285	           11.747140	           -0.238309	            0.005507	           -0.665087	            0.020647	           -1.325130	           -0.053107
            0.498000	            1.243720	          332.453412	           -8.666257	           -0.242014	            0.006338	           -0.432621	            0.002796	            0.747409	           -0.019483	           -4.567855	          293.297928	           11.607013	           -0.237856	            0.005510	           -0.665449	            0.020864	           -1.339666	           -0.053016
            0.498500	            1.427484	          331.551757	           -8.578865	           -0.241784	            0.006341	           -0.433260	            0.003429	            0.796340	           -0.020605	           -4.705747	          292.560857	           11.604444	           -0.238070	            0.005508	           -0.665025	            0.020571	           -1.278938	           -0.050729
            0.499000	            1.381674	          331.371452	           -8.579525	           -0.242074	            0.006342	           -0.433356	            0.003530	            0.846672	           -0.021921	           -4.569870	          293.850578	           11.562056	           -0.237849	            0.005511	           -0.665702	            0.020549	           -1.321314	           -0.051989
            0.499500	            1.289694	          331.732359	           -8.669463	           -0.242135	            0.006340	           -0.433062	            0.003160	            0.812836	           -0.021243	           -4.520341	          293.113956	           11.606336	           -0.237862	            0.005508	           -0.665024	            0.020323	           -1.317786	           -0.052180
            0.500000	            1.518975	          331.371872	           -8.671578	           -0.241940	            0.006341	           -0.433140	            0.003989	            0.870289	           -0.022774	           -4.474258	          293.299103	           11.372332	           -0.238055	            0.005508	           -0.665131	            0.020095	           -1.317276	           -0.051076
            0.500500	            1.243672	          332.093078	           -8.713659	           -0.241904	            0.006340	           -0.432875	            0.003040	            0.811734	           -0.021299	           -4.521005	          293.298097	           11.606993	           -0.238053	            0.005508	           -0.665003	            0.020051	           -1.300831	           -0.051479
